<svg width="66" height="19" viewBox="0 0 66 19" fill="none" xmlns="http://www.w3.org/2000/svg">
<path d="M8.208 18.36C6.928 18.36 5.772 18.136 4.74 17.688C3.716 17.232 2.872 16.584 2.208 15.744C1.552 14.896 1.136 13.888 0.96 12.72L4.368 12.216C4.608 13.208 5.104 13.972 5.856 14.508C6.608 15.044 7.464 15.312 8.424 15.312C8.96 15.312 9.48 15.228 9.984 15.06C10.488 14.892 10.9 14.644 11.22 14.316C11.548 13.988 11.712 13.584 11.712 13.104C11.712 12.928 11.684 12.76 11.628 12.6C11.58 12.432 11.496 12.276 11.376 12.132C11.256 11.988 11.084 11.852 10.86 11.724C10.644 11.596 10.368 11.48 10.032 11.376L5.544 10.056C5.208 9.96 4.816 9.824 4.368 9.648C3.928 9.472 3.5 9.22 3.084 8.892C2.668 8.564 2.32 8.132 2.04 7.596C1.768 7.052 1.632 6.368 1.632 5.544C1.632 4.384 1.924 3.42 2.508 2.652C3.092 1.884 3.872 1.312 4.848 0.935999C5.824 0.559999 6.904 0.375999 8.088 0.383999C9.28 0.399999 10.344 0.603999 11.28 0.995999C12.216 1.388 13 1.96 13.632 2.712C14.264 3.456 14.72 4.368 15 5.448L11.472 6.048C11.344 5.488 11.108 5.016 10.764 4.632C10.42 4.248 10.008 3.956 9.528 3.756C9.056 3.556 8.56 3.448 8.04 3.432C7.528 3.416 7.044 3.488 6.588 3.648C6.14 3.8 5.772 4.024 5.484 4.32C5.204 4.616 5.064 4.968 5.064 5.376C5.064 5.752 5.18 6.06 5.412 6.3C5.644 6.532 5.936 6.72 6.288 6.864C6.64 7.008 7 7.128 7.368 7.224L10.368 8.04C10.816 8.16 11.312 8.32 11.856 8.52C12.4 8.712 12.92 8.984 13.416 9.336C13.92 9.68 14.332 10.136 14.652 10.704C14.98 11.272 15.144 11.992 15.144 12.864C15.144 13.792 14.948 14.604 14.556 15.3C14.172 15.988 13.652 16.56 12.996 17.016C12.34 17.464 11.596 17.8 10.764 18.024C9.94 18.248 9.088 18.36 8.208 18.36ZM21.7896 18V3.768H16.3416V0.719999H30.5016V3.768H25.0536V18H21.7896ZM39.63 18.36C38.542 18.36 37.506 18.168 36.522 17.784C35.538 17.392 34.666 16.816 33.906 16.056C33.154 15.296 32.558 14.356 32.118 13.236C31.686 12.116 31.47 10.824 31.47 9.36C31.47 7.448 31.834 5.824 32.562 4.488C33.298 3.144 34.282 2.12 35.514 1.416C36.754 0.711999 38.126 0.36 39.63 0.36C41.854 0.36 43.602 0.875999 44.874 1.908C46.146 2.94 46.998 4.4 47.43 6.288L44.094 6.768C43.782 5.76 43.27 4.956 42.558 4.356C41.854 3.748 40.95 3.44 39.846 3.432C38.75 3.416 37.838 3.652 37.11 4.14C36.382 4.628 35.834 5.32 35.466 6.216C35.106 7.112 34.926 8.16 34.926 9.36C34.926 10.56 35.106 11.6 35.466 12.48C35.834 13.36 36.382 14.044 37.11 14.532C37.838 15.02 38.75 15.272 39.846 15.288C40.59 15.304 41.262 15.176 41.862 14.904C42.47 14.632 42.982 14.204 43.398 13.62C43.814 13.036 44.11 12.288 44.286 11.376H41.55V8.856H47.766C47.782 8.96 47.794 9.144 47.802 9.408C47.81 9.672 47.814 9.824 47.814 9.864C47.814 11.52 47.478 12.988 46.806 14.268C46.134 15.548 45.186 16.552 43.962 17.28C42.738 18 41.294 18.36 39.63 18.36ZM57.6351 18.36C55.9071 18.36 54.4151 17.984 53.1591 17.232C51.9111 16.48 50.9471 15.428 50.2671 14.076C49.5951 12.724 49.2591 11.152 49.2591 9.36C49.2591 7.568 49.5951 5.996 50.2671 4.644C50.9471 3.292 51.9111 2.24 53.1591 1.488C54.4151 0.736 55.9071 0.36 57.6351 0.36C59.6191 0.36 61.2831 0.851999 62.6271 1.836C63.9791 2.82 64.9311 4.152 65.4831 5.832L62.1951 6.744C61.8751 5.696 61.3351 4.884 60.5751 4.308C59.8151 3.724 58.8351 3.432 57.6351 3.432C56.5391 3.432 55.6231 3.676 54.8871 4.164C54.1591 4.652 53.6111 5.34 53.2431 6.228C52.8751 7.116 52.6911 8.16 52.6911 9.36C52.6911 10.56 52.8751 11.604 53.2431 12.492C53.6111 13.38 54.1591 14.068 54.8871 14.556C55.6231 15.044 56.5391 15.288 57.6351 15.288C58.8351 15.288 59.8151 14.996 60.5751 14.412C61.3351 13.828 61.8751 13.016 62.1951 11.976L65.4831 12.888C64.9311 14.568 63.9791 15.9 62.6271 16.884C61.2831 17.868 59.6191 18.36 57.6351 18.36Z" fill="#0F0D0D"/>
</svg>
