<svg width="107" height="31" viewBox="0 0 107 31" fill="none" xmlns="http://www.w3.org/2000/svg">
<path d="M12.46 30.6C10.3533 30.6 8.45333 30.2333 6.76 29.5C5.08 28.7667 3.69333 27.72 2.6 26.36C1.52 24.9867 0.833333 23.36 0.54 21.48L5.54 20.72C5.96667 22.4267 6.84 23.7467 8.16 24.68C9.49333 25.6133 11.0267 26.08 12.76 26.08C13.7867 26.08 14.7533 25.92 15.66 25.6C16.5667 25.28 17.3 24.8133 17.86 24.2C18.4333 23.5867 18.72 22.8333 18.72 21.94C18.72 21.54 18.6533 21.1733 18.52 20.84C18.3867 20.4933 18.1867 20.1867 17.92 19.92C17.6667 19.6533 17.3333 19.4133 16.92 19.2C16.52 18.9733 16.0533 18.78 15.52 18.62L8.08 16.42C7.44 16.2333 6.74667 15.9867 6 15.68C5.26667 15.36 4.56667 14.9267 3.9 14.38C3.24667 13.82 2.70667 13.1133 2.28 12.26C1.86667 11.3933 1.66 10.3267 1.66 9.06C1.66 7.20666 2.12667 5.65333 3.06 4.4C4.00667 3.13333 5.27333 2.18666 6.86 1.56C8.46 0.933332 10.2333 0.626665 12.18 0.639999C14.1533 0.653331 15.9133 0.993331 17.46 1.66C19.0067 2.31333 20.3 3.26667 21.34 4.52C22.38 5.77333 23.1133 7.28667 23.54 9.06L18.36 9.96C18.1467 8.94667 17.7333 8.08667 17.12 7.38C16.52 6.66 15.78 6.11333 14.9 5.74C14.0333 5.36667 13.1067 5.16667 12.12 5.14C11.16 5.12667 10.2667 5.27333 9.44 5.58C8.62667 5.87333 7.96667 6.3 7.46 6.86C6.96667 7.42 6.72 8.07333 6.72 8.82C6.72 9.52667 6.93333 10.1067 7.36 10.56C7.78667 11 8.31333 11.3533 8.94 11.62C9.58 11.8733 10.2267 12.0867 10.88 12.26L16.04 13.7C16.7467 13.8867 17.54 14.14 18.42 14.46C19.3 14.78 20.1467 15.2267 20.96 15.8C21.7733 16.3733 22.44 17.1267 22.96 18.06C23.4933 18.9933 23.76 20.18 23.76 21.62C23.76 23.1133 23.4467 24.4267 22.82 25.56C22.2067 26.68 21.3733 27.6133 20.32 28.36C19.2667 29.1067 18.06 29.6667 16.7 30.04C15.3533 30.4133 13.94 30.6 12.46 30.6ZM35.0091 30V5.72H25.6891V1.2H49.1491V5.72H39.8291V30H35.0091ZM64.2269 30.6C62.3602 30.6 60.6069 30.2733 58.9669 29.62C57.3402 28.9533 55.9069 27.98 54.6669 26.7C53.4402 25.42 52.4802 23.8533 51.7869 22C51.0935 20.1333 50.7469 18 50.7469 15.6C50.7469 12.4533 51.3335 9.76667 52.5069 7.54C53.6802 5.3 55.2869 3.58667 57.3269 2.4C59.3669 1.2 61.6669 0.599999 64.2269 0.599999C67.7735 0.599999 70.5802 1.42667 72.6469 3.08C74.7269 4.72 76.1335 7.02667 76.8669 10L71.9469 10.78C71.4002 9.07333 70.5069 7.71333 69.2669 6.7C68.0269 5.67333 66.4469 5.16 64.5269 5.16C62.5935 5.13333 60.9869 5.55333 59.7069 6.42C58.4269 7.28667 57.4602 8.50667 56.8069 10.08C56.1669 11.6533 55.8469 13.4933 55.8469 15.6C55.8469 17.7067 56.1669 19.54 56.8069 21.1C57.4469 22.6467 58.4069 23.8533 59.6869 24.72C60.9802 25.5867 62.5935 26.0333 64.5269 26.06C65.9802 26.0733 67.2535 25.8133 68.3469 25.28C69.4402 24.7333 70.3335 23.9133 71.0269 22.82C71.7202 21.7133 72.1869 20.3333 72.4269 18.68H67.3469V14.9H77.5469C77.5735 15.1133 77.5935 15.4267 77.6069 15.84C77.6202 16.2533 77.6269 16.5 77.6269 16.58C77.6269 19.3 77.0869 21.72 76.0069 23.84C74.9402 25.9467 73.4069 27.6 71.4069 28.8C69.4069 30 67.0135 30.6 64.2269 30.6ZM93.8238 30.6C90.9438 30.6 88.4771 29.9733 86.4238 28.72C84.3704 27.4533 82.7904 25.6933 81.6838 23.44C80.5904 21.1867 80.0438 18.5733 80.0438 15.6C80.0438 12.6267 80.5904 10.0133 81.6838 7.76C82.7904 5.50667 84.3704 3.75333 86.4238 2.5C88.4771 1.23333 90.9438 0.599999 93.8238 0.599999C97.1438 0.599999 99.9104 1.43333 102.124 3.1C104.337 4.75333 105.89 6.98667 106.784 9.8L101.924 11.14C101.364 9.26 100.41 7.79333 99.0638 6.74C97.7171 5.67333 95.9704 5.14 93.8238 5.14C91.8904 5.14 90.2771 5.57333 88.9838 6.44C87.7038 7.30667 86.7371 8.52667 86.0838 10.1C85.4438 11.66 85.1171 13.4933 85.1038 15.6C85.1038 17.7067 85.4238 19.5467 86.0638 21.12C86.7171 22.68 87.6904 23.8933 88.9838 24.76C90.2771 25.6267 91.8904 26.06 93.8238 26.06C95.9704 26.06 97.7171 25.5267 99.0638 24.46C100.41 23.3933 101.364 21.9267 101.924 20.06L106.784 21.4C105.89 24.2133 104.337 26.4533 102.124 28.12C99.9104 29.7733 97.1438 30.6 93.8238 30.6Z" fill="white"/>
</svg>
